<?xml version="1.0" standalone="no"?>
<!DOCTYPE svg PUBLIC "-//W3C//DTD SVG 20010904//EN"
 "http://www.w3.org/TR/2001/REC-SVG-20010904/DTD/svg10.dtd">
<svg version="1.0" xmlns="http://www.w3.org/2000/svg"
 width="1080.000000pt" height="1045.000000pt" viewBox="0 0 1080.000000 1045.000000"
 preserveAspectRatio="xMidYMid meet">

<g transform="translate(0.000000,1045.000000) scale(0.100000,-0.100000)"
fill="#000000" stroke="none">
<path d="M4845 9630 c-149 -8 -255 -24 -320 -47 -45 -16 -270 -52 -328 -53
-61 0 -186 -30 -236 -55 -25 -13 -101 -35 -168 -48 -88 -18 -139 -35 -185 -60
-35 -19 -79 -38 -98 -42 -69 -13 -129 -37 -165 -65 -19 -15 -67 -38 -105 -49
-46 -14 -84 -34 -113 -59 -25 -21 -65 -44 -90 -51 -27 -8 -68 -32 -98 -58 -29
-24 -70 -51 -91 -60 -21 -8 -48 -28 -59 -44 -11 -16 -43 -41 -70 -54 -26 -14
-53 -34 -58 -44 -6 -10 -32 -35 -58 -54 -61 -44 -243 -229 -263 -266 -8 -15
-34 -45 -57 -65 -24 -21 -43 -45 -43 -53 0 -8 -16 -29 -36 -46 -20 -18 -47
-54 -61 -82 -14 -27 -40 -66 -58 -86 -19 -21 -40 -61 -49 -93 -10 -34 -30 -70
-51 -93 -25 -27 -43 -62 -60 -119 -14 -45 -34 -89 -44 -98 -23 -21 -44 -75
-71 -186 -11 -46 -32 -101 -45 -121 -27 -37 -41 -97 -70 -289 -10 -63 -21
-119 -25 -125 -44 -61 -68 -304 -74 -740 -2 -172 0 -336 6 -369 6 -42 6 -75
-3 -110 -14 -60 -22 -72 -63 -91 -17 -8 -42 -32 -55 -53 -13 -21 -33 -43 -45
-48 -11 -5 -31 -29 -43 -53 -13 -25 -40 -61 -61 -81 -30 -29 -43 -53 -61 -115
-12 -44 -31 -90 -42 -103 -42 -54 -52 -116 -57 -348 -5 -265 5 -343 52 -429
18 -33 43 -90 55 -127 15 -44 32 -76 51 -91 15 -13 37 -44 48 -68 24 -52 180
-216 246 -258 26 -16 57 -40 69 -53 12 -13 58 -36 102 -52 44 -16 93 -39 108
-52 15 -13 45 -28 65 -33 58 -16 233 -31 349 -31 57 0 113 -5 124 -10 11 -6
40 -31 65 -57 36 -35 50 -60 66 -113 14 -47 32 -80 58 -108 24 -25 44 -60 54
-95 10 -35 30 -70 56 -98 21 -24 44 -56 50 -71 5 -15 15 -41 21 -58 6 -16 21
-32 33 -36 27 -9 35 -21 28 -46 -3 -13 -10 -17 -21 -13 -9 4 -40 11 -69 16
-28 6 -71 18 -94 29 -40 18 -43 18 -77 1 -20 -10 -52 -24 -72 -30 -36 -12 -53
-27 -123 -107 -49 -56 -56 -82 -57 -198 -1 -148 -22 -208 -59 -168 -12 12 -39
31 -60 42 -22 11 -40 25 -40 31 0 24 -88 50 -177 50 -104 0 -129 -8 -195 -64
-114 -96 -114 -97 -128 -176 -13 -78 -7 -216 12 -284 6 -20 26 -55 45 -77 19
-21 47 -69 64 -105 16 -36 39 -71 50 -77 12 -7 36 -46 55 -87 19 -40 48 -89
65 -109 17 -19 39 -54 49 -78 10 -23 32 -52 48 -64 23 -17 33 -35 42 -82 l13
-59 -50 -47 c-56 -52 -53 -40 -69 -276 -6 -96 -8 -101 -39 -130 -48 -45 -58
-72 -59 -156 -1 -81 19 -134 64 -175 12 -11 35 -47 51 -79 16 -32 38 -65 49
-73 11 -8 29 -31 40 -52 10 -21 34 -54 53 -73 19 -19 41 -46 50 -58 35 -50
103 -113 151 -140 42 -24 57 -40 84 -93 17 -35 32 -74 32 -86 0 -20 4 -21 134
-21 131 0 134 0 150 25 23 34 60 51 163 74 103 22 142 37 198 75 39 27 40 27
56 8 9 -11 24 -57 33 -101 l18 -81 338 0 338 0 8 82 c9 91 9 86 -5 143 -8 28
-7 87 1 202 l12 162 -25 53 c-30 66 -65 108 -89 108 -29 0 -131 -28 -145 -40
-9 -7 -15 -56 -19 -148 -7 -143 -19 -220 -39 -246 -20 -25 -123 -7 -185 33
l-52 33 24 31 c13 18 33 53 45 79 13 27 36 58 53 69 18 13 40 45 55 78 37 88
44 99 64 104 10 3 21 18 24 33 16 78 38 155 60 209 29 70 32 146 9 190 -17 33
-39 90 -55 144 -6 19 -8 59 -4 94 7 54 12 65 62 121 128 143 285 293 344 329
20 12 48 30 62 40 34 24 121 37 257 37 133 -1 191 -11 241 -46 35 -24 91 -38
274 -69 50 -8 137 -24 195 -36 139 -27 309 -22 460 14 58 14 128 29 155 32 92
12 160 26 221 47 l60 20 125 -21 c68 -11 168 -26 222 -31 107 -12 162 -28 208
-61 16 -11 55 -31 85 -43 104 -40 304 -229 390 -368 14 -24 37 -54 50 -68 13
-14 38 -54 54 -89 17 -35 43 -79 57 -97 14 -19 35 -67 48 -107 12 -41 38 -97
58 -125 24 -35 40 -75 52 -129 9 -43 35 -117 57 -165 25 -57 37 -95 33 -108
-4 -11 -30 -32 -58 -47 -29 -14 -69 -39 -90 -55 -21 -17 -65 -39 -97 -49 -33
-10 -73 -25 -88 -33 -26 -13 -32 -13 -60 4 -44 27 -59 62 -67 160 -8 101 -31
233 -45 259 -5 11 -23 30 -39 44 -25 21 -37 24 -83 20 -45 -4 -58 -10 -86 -40
l-34 -35 2 -226 c1 -125 -1 -287 -6 -359 l-7 -133 247 0 c260 0 293 5 341 50
11 10 42 29 69 41 84 37 177 11 194 -54 l8 -32 132 -3 132 -3 0 29 c0 15 -7
54 -15 86 -13 51 -14 77 -3 180 10 108 10 129 -6 189 -9 38 -30 93 -47 122
-19 34 -36 84 -45 135 -13 75 -42 151 -63 164 -9 6 -41 95 -60 172 -6 23 -24
58 -40 78 -17 21 -39 66 -51 100 -11 35 -37 82 -56 105 -20 23 -45 65 -56 94
-11 29 -34 68 -52 87 -18 19 -39 55 -46 80 -19 63 -40 103 -62 118 -11 8 -30
37 -44 65 -44 92 -213 255 -293 282 -44 14 -56 24 -87 72 -19 30 -34 59 -32
65 2 5 35 20 73 33 51 17 78 33 100 59 16 19 51 44 76 55 25 10 55 30 65 43
10 12 50 43 87 67 37 24 72 52 77 61 5 10 33 34 63 53 29 19 59 46 66 60 7 14
33 40 57 57 24 17 44 35 44 40 0 5 25 35 55 66 30 31 67 78 82 103 14 25 39
57 53 71 15 14 37 46 50 70 12 25 36 56 52 69 16 13 40 48 53 77 13 30 38 68
55 86 17 18 40 59 52 90 11 32 31 68 43 80 28 29 59 90 74 145 8 29 29 60 65
96 l52 54 190 6 c211 7 294 22 364 66 25 16 71 37 104 47 41 13 70 30 94 56
20 21 40 38 45 38 39 0 237 193 271 265 14 28 38 63 55 79 28 27 41 57 70 163
7 24 16 43 21 43 4 0 18 20 30 44 28 60 43 295 31 492 -9 140 -20 186 -59 242
-11 15 -29 60 -42 100 -16 54 -34 87 -66 123 -24 27 -44 57 -44 66 0 8 -21 37
-47 64 -27 26 -62 63 -80 81 -50 52 -137 131 -163 149 l-24 16 27 54 c20 40
27 71 29 119 3 101 -10 302 -21 335 -13 40 -27 158 -47 405 -15 192 -19 212
-60 339 -24 74 -44 145 -44 158 0 54 -33 180 -56 216 -14 21 -36 84 -50 140
-16 67 -35 117 -55 145 -16 24 -41 77 -54 119 -14 41 -38 91 -54 112 -16 20
-41 67 -56 104 -15 36 -39 79 -55 94 -15 16 -39 53 -54 84 -14 31 -42 73 -61
94 -20 20 -43 51 -51 68 -9 18 -36 52 -60 77 -120 122 -154 159 -154 168 0 6
-22 26 -50 46 -27 19 -56 48 -64 64 -8 16 -29 35 -45 42 -17 7 -47 32 -66 56
-20 24 -42 44 -49 44 -7 0 -36 20 -65 45 -29 25 -82 59 -116 76 -35 17 -70 41
-79 53 -8 14 -48 36 -98 56 -46 18 -92 43 -104 55 -12 14 -58 34 -110 50 -50
15 -100 37 -114 50 -32 30 -54 38 -175 64 -54 11 -125 34 -156 51 -57 29 -81
34 -301 65 -59 8 -128 24 -153 35 -95 43 -205 51 -760 55 -286 2 -583 0 -660
-5z m821 -1880 c138 -6 277 -15 310 -20 113 -18 450 -49 639 -59 417 -24 504
-34 635 -76 63 -20 125 -40 137 -45 64 -26 84 -144 90 -520 5 -309 8 -330 71
-435 49 -82 49 -81 219 -120 49 -12 78 -24 95 -42 12 -14 41 -38 64 -53 34
-24 45 -41 68 -104 15 -41 34 -80 41 -86 34 -28 52 -115 80 -386 16 -162 37
-226 97 -297 38 -45 57 -93 58 -143 0 -13 -19 -34 -57 -62 -63 -46 -67 -45
-104 17 -33 55 -59 79 -89 86 -18 4 -32 16 -40 35 -6 16 -19 35 -28 43 -26 23
-121 36 -289 40 -162 5 -193 -2 -193 -42 0 -15 14 -22 68 -34 37 -9 96 -18
132 -22 182 -16 221 -26 261 -64 21 -20 43 -49 49 -66 14 -35 16 -435 3 -477
-4 -15 -23 -37 -42 -50 -19 -13 -43 -39 -53 -59 -15 -30 -30 -41 -78 -59 -34
-13 -71 -36 -89 -55 -19 -21 -43 -36 -63 -39 -65 -9 -677 -28 -908 -28 -211 0
-514 15 -580 28 -14 2 -32 17 -41 33 -12 20 -37 37 -89 57 -62 25 -74 34 -92
69 -26 50 -47 75 -75 86 -22 8 -25 18 -53 184 -6 39 -20 89 -30 111 -15 35
-16 49 -7 95 6 30 25 77 42 104 18 28 39 62 48 76 14 24 24 28 89 34 198 18
323 37 360 56 10 6 14 16 11 29 -3 12 -8 18 -11 15 -3 -2 -12 1 -19 7 -18 15
-268 12 -361 -4 -55 -9 -67 -15 -94 -49 -19 -23 -40 -39 -53 -39 -24 0 -69
-44 -79 -76 -4 -12 -16 -30 -27 -40 -20 -18 -43 -19 -358 -20 -185 0 -355 -4
-378 -8 -39 -8 -44 -6 -70 22 -15 16 -39 44 -52 62 -13 17 -36 34 -53 37 -17
3 -42 21 -60 44 -49 61 -88 71 -289 78 -178 6 -183 7 -227 48 -41 39 -639 57
-922 28 -198 -20 -204 -21 -215 -48 -6 -12 -16 -23 -22 -23 -7 -1 -16 -3 -20
-4 -5 -1 -89 -3 -188 -4 -195 -1 -205 -3 -261 -60 -17 -17 -43 -39 -57 -49
-15 -10 -31 -33 -37 -56 -17 -63 -34 -72 -105 -54 -80 19 -98 41 -93 112 4 49
9 58 46 90 49 43 57 62 66 161 4 41 18 131 32 200 40 209 43 223 49 275 10 87
27 179 37 198 5 9 31 28 58 42 27 14 70 38 96 55 26 16 72 34 103 40 136 27
128 22 230 162 10 14 17 68 22 186 13 276 26 367 64 442 18 36 40 91 49 122
24 83 125 188 180 188 12 0 54 16 94 35 96 46 120 51 307 70 88 9 223 25 300
36 77 11 178 24 225 29 211 26 943 30 1426 10z m3126 -2126 c36 -19 168 -148
168 -165 0 -5 20 -31 44 -57 31 -34 50 -68 70 -126 15 -43 35 -95 46 -115 27
-54 42 -151 41 -267 0 -112 -13 -175 -47 -244 -12 -25 -30 -73 -40 -108 -12
-43 -30 -77 -56 -107 -21 -24 -38 -48 -38 -54 0 -17 -118 -138 -158 -163 -21
-12 -56 -39 -79 -60 -24 -21 -49 -38 -56 -38 -8 0 -55 -20 -105 -45 -85 -42
-100 -46 -204 -54 -112 -9 -133 -6 -157 23 -20 24 4 121 44 181 23 34 41 79
55 140 11 49 37 125 56 168 22 47 45 125 59 194 14 71 31 126 43 143 27 36 48
114 62 225 6 50 22 131 36 180 32 118 49 192 68 293 8 46 22 95 31 108 l16 25
35 -30 c19 -17 49 -38 66 -47z m-6874 -16 c11 -19 27 -79 37 -136 9 -57 29
-140 45 -185 15 -45 33 -122 40 -172 18 -132 34 -197 63 -246 16 -28 35 -91
51 -171 17 -88 34 -143 55 -180 17 -29 41 -98 54 -153 14 -57 39 -129 60 -167
51 -96 56 -133 24 -165 l-25 -25 -113 11 c-100 9 -123 15 -183 47 -38 20 -91
43 -118 51 -27 8 -66 29 -86 46 -20 18 -53 44 -72 58 -49 37 -98 87 -128 134
-15 22 -41 56 -58 76 -18 21 -39 62 -49 95 -9 32 -28 80 -42 107 -68 136 -73
409 -8 536 12 26 37 83 54 127 17 45 40 89 52 99 11 10 29 35 41 54 31 50 154
170 181 176 12 2 36 6 52 8 17 2 35 5 42 6 6 0 20 -14 31 -31z m2208 -110 c17
-10 34 -24 37 -32 4 -9 27 -17 64 -21 32 -3 90 -11 128 -16 39 -6 116 -14 173
-19 l104 -9 53 -54 c73 -73 78 -89 71 -227 -10 -187 -15 -210 -46 -239 -16
-14 -43 -56 -61 -94 -36 -77 -81 -121 -141 -139 -24 -7 -58 -29 -79 -51 -31
-32 -47 -39 -96 -47 -153 -23 -748 -29 -1058 -10 -88 5 -219 10 -291 10 l-130
0 -15 33 c-11 26 -25 36 -70 52 -40 14 -72 36 -112 75 l-55 56 -32 132 c-30
124 -33 131 -51 121 -30 -16 -39 -51 -39 -157 0 -124 12 -170 48 -182 46 -17
56 -25 78 -66 17 -34 29 -42 85 -61 35 -12 74 -22 86 -22 13 -1 30 -12 39 -25
16 -26 76 -50 151 -60 82 -12 1345 -8 1402 5 37 8 64 22 89 45 20 19 52 39 71
45 79 24 94 33 108 66 9 23 25 39 49 49 40 17 51 37 67 119 9 46 17 62 36 71
38 19 58 63 69 147 14 104 47 168 96 184 24 8 119 13 283 14 355 3 316 9 380
-61 31 -33 60 -60 66 -60 22 0 36 -38 37 -95 0 -33 7 -87 14 -120 12 -48 22
-65 50 -88 20 -16 36 -36 36 -46 0 -22 57 -91 75 -91 8 0 21 -13 30 -30 17
-32 61 -60 97 -60 42 0 65 -11 77 -36 6 -15 31 -34 59 -47 47 -21 52 -21 717
-20 582 1 681 4 750 18 90 19 115 30 115 50 0 13 19 20 104 40 29 6 156 126
156 147 0 6 18 28 40 48 46 42 60 93 60 217 0 80 23 142 60 165 11 7 20 18 20
24 0 13 43 34 70 34 11 0 26 -10 34 -23 13 -19 13 -30 2 -77 -7 -30 -22 -74
-34 -96 -11 -23 -32 -98 -46 -166 -18 -90 -35 -144 -60 -191 -19 -36 -39 -92
-46 -124 -17 -86 -39 -149 -62 -178 -11 -14 -31 -68 -45 -118 -13 -51 -39
-117 -57 -147 -18 -30 -43 -87 -55 -126 -11 -39 -36 -93 -54 -120 -18 -27 -44
-78 -56 -114 -13 -36 -35 -78 -48 -94 -14 -16 -38 -57 -54 -92 -16 -34 -43
-79 -61 -100 -17 -22 -41 -62 -54 -90 -12 -28 -33 -60 -46 -70 -13 -11 -41
-45 -63 -76 -106 -151 -332 -391 -431 -458 -27 -18 -65 -47 -84 -65 -19 -17
-56 -44 -81 -58 -25 -14 -53 -37 -62 -50 -8 -13 -37 -32 -64 -42 -53 -20 -84
-38 -125 -71 -15 -12 -58 -32 -95 -44 -37 -12 -85 -36 -107 -53 -21 -16 -71
-40 -112 -53 -40 -12 -99 -38 -131 -58 -33 -20 -88 -42 -128 -51 -38 -9 -106
-33 -150 -55 -83 -41 -119 -48 -480 -92 -81 -10 -187 -5 -305 13 -35 6 -118
17 -183 25 -98 12 -131 20 -186 49 -36 19 -100 43 -141 54 -91 24 -103 29
-162 64 -26 16 -81 39 -123 52 -43 13 -88 33 -100 45 -13 12 -61 37 -106 55
-45 19 -96 45 -113 59 -17 14 -62 38 -99 53 -44 17 -75 37 -88 55 -12 16 -39
38 -62 50 -23 11 -63 39 -88 62 -25 22 -72 61 -103 86 -126 98 -146 117 -175
158 -17 23 -35 42 -40 42 -10 0 -141 160 -183 224 -16 22 -43 57 -61 76 -18
19 -39 51 -47 70 -7 19 -30 53 -49 76 -20 23 -45 65 -55 94 -11 30 -34 70 -53
91 -20 22 -43 66 -58 109 -13 39 -37 86 -53 104 -17 20 -39 67 -56 120 -15 48
-40 109 -56 134 -16 26 -40 86 -54 134 -14 47 -38 110 -55 140 -18 31 -41 99
-56 163 -14 61 -34 121 -44 135 -41 57 -45 76 -51 204 -4 112 -8 130 -24 140
-50 30 -58 42 -66 106 -8 67 0 100 24 100 18 0 42 -30 49 -60 12 -50 42 -70
106 -70 l58 0 12 103 c9 71 22 123 43 172 17 39 33 73 37 77 3 4 56 12 116 18
61 6 161 20 224 31 62 10 118 19 122 19 5 0 9 5 9 12 0 6 7 19 15 28 13 15 61
16 497 16 435 -1 486 -3 514 -18z m-1455 -2644 c7 -8 29 -24 48 -34 56 -28 68
-49 90 -147 11 -51 33 -123 50 -161 18 -40 39 -117 51 -188 14 -77 33 -145 55
-194 18 -41 38 -104 45 -140 25 -146 34 -178 77 -258 29 -52 60 -95 88 -117
29 -24 44 -46 48 -68 3 -17 9 -46 12 -64 7 -28 3 -34 -35 -62 -23 -17 -55 -51
-71 -75 -15 -25 -38 -51 -49 -58 -12 -7 -30 -30 -41 -50 -39 -77 -135 -146
-184 -134 -13 3 -32 22 -44 41 -11 20 -36 45 -55 56 -19 11 -44 36 -55 55 -11
19 -36 44 -55 55 -19 11 -44 36 -55 55 -11 19 -36 44 -56 55 -19 12 -35 26
-35 32 0 15 -51 67 -66 67 -7 0 -25 16 -41 35 -15 20 -44 55 -64 78 -19 23
-42 58 -49 77 -17 43 -55 106 -71 115 -6 4 -23 35 -39 69 -15 33 -40 72 -55
86 -15 14 -40 54 -56 89 -16 35 -44 80 -63 101 -46 51 -80 157 -71 222 11 76
47 102 127 92 61 -8 84 -24 104 -74 8 -19 26 -46 39 -60 13 -14 39 -59 58
-100 19 -41 46 -86 61 -99 14 -13 37 -55 52 -93 15 -37 41 -85 58 -106 17 -20
39 -53 50 -73 18 -36 99 -114 143 -137 32 -17 109 -15 127 4 20 20 20 25 -4
123 -11 45 -27 134 -35 199 -8 64 -24 150 -35 190 -11 39 -29 103 -39 141 -25
89 -44 254 -39 334 2 43 11 75 27 100 25 41 33 44 52 21z m455 -95 c7 -15 36
-43 63 -62 27 -20 52 -44 55 -55 4 -11 23 -31 44 -45 20 -14 55 -42 77 -62 22
-20 63 -50 90 -66 28 -16 63 -42 79 -59 15 -17 45 -38 65 -46 20 -8 52 -30 71
-48 19 -19 59 -46 88 -60 28 -15 52 -30 51 -34 -1 -12 -132 -118 -188 -152
-28 -17 -51 -35 -51 -39 0 -4 -24 -35 -53 -69 -30 -34 -66 -85 -82 -114 -15
-29 -29 -54 -30 -56 -1 -1 -27 5 -58 15 -66 20 -70 26 -97 179 -9 55 -24 112
-31 126 -8 14 -24 43 -35 64 -13 23 -24 68 -28 112 -10 98 -32 181 -58 217
-29 40 -71 251 -56 280 6 11 16 23 22 27 13 9 43 -18 62 -53z m-761 -1373 c39
-17 347 -319 393 -388 46 -67 43 -88 -25 -153 -79 -75 -89 -77 -132 -27 -20
22 -52 48 -71 58 -19 9 -53 35 -76 58 -74 74 -148 133 -200 159 -67 34 -75 46
-81 119 l-5 63 72 63 c39 34 76 62 81 62 5 0 25 -6 44 -14z m1106 -38 c81 -56
97 -80 105 -156 l7 -63 -143 -140 c-78 -76 -146 -139 -150 -139 -5 0 -18 -16
-30 -35 -12 -19 -39 -45 -61 -59 -22 -13 -51 -39 -64 -58 -18 -27 -39 -40 -94
-60 l-71 -25 -59 41 c-33 23 -63 47 -65 54 -13 31 75 193 133 246 18 17 41 48
51 68 9 21 32 48 51 61 19 12 42 39 52 59 10 20 33 48 52 63 19 14 42 40 51
58 16 29 32 45 75 72 8 6 31 20 50 32 19 13 37 23 41 23 4 0 35 -19 69 -42z
m-1205 -438 c29 -27 60 -50 68 -50 8 0 27 -16 42 -36 15 -19 42 -43 60 -52 38
-19 154 -146 154 -167 0 -8 -11 -26 -24 -41 -23 -28 -24 -28 -81 -15 -42 10
-69 23 -99 51 -22 21 -68 51 -101 68 -33 16 -69 40 -80 52 -11 12 -41 33 -66
45 -67 35 -73 45 -59 104 14 59 21 66 80 79 25 5 47 10 49 11 2 1 28 -21 57
-49z m608 -406 c46 -24 91 -39 134 -44 69 -9 84 -20 80 -60 -3 -21 -15 -30
-83 -56 -44 -18 -96 -39 -115 -49 -54 -27 -132 -31 -187 -10 -44 16 -133 88
-133 108 0 4 24 19 54 32 43 19 60 34 85 75 30 49 34 52 64 46 17 -4 63 -23
101 -42z m321 -5 c0 -19 -5 -24 -25 -24 -14 0 -34 4 -44 9 -18 8 -16 10 15 27
42 22 54 20 54 -12z"/>
<path d="M3332 6251 c-23 -4 -55 -17 -72 -29 -16 -12 -55 -31 -86 -43 -32 -12
-78 -41 -108 -68 -28 -25 -68 -57 -88 -69 -28 -17 -41 -35 -53 -72 -21 -62
-17 -88 15 -111 23 -16 68 -18 500 -23 282 -3 516 -11 575 -18 189 -24 231
-15 256 51 13 32 1 44 -78 81 -36 17 -83 45 -103 61 -21 17 -72 41 -115 54
-42 13 -98 38 -124 54 -30 20 -86 40 -152 56 -57 14 -124 34 -149 45 -82 36
-136 44 -218 31z"/>
<path d="M7027 6250 c-21 -6 -62 -21 -91 -35 -29 -14 -90 -33 -135 -42 -54
-10 -102 -28 -139 -50 -31 -19 -86 -43 -122 -55 -36 -11 -83 -34 -105 -49 -22
-16 -67 -42 -100 -58 -102 -49 -114 -82 -51 -140 25 -24 26 -24 123 -13 197
24 386 32 746 32 379 0 412 3 444 42 10 12 9 23 -7 56 -11 23 -20 48 -20 56 0
8 -19 30 -41 48 -23 18 -61 52 -84 76 -24 23 -50 42 -58 42 -8 0 -57 21 -107
46 -100 50 -175 63 -253 44z"/>
<path d="M5226 5858 c-46 -72 -25 -108 63 -108 45 0 62 4 76 20 17 19 17 22 1
63 l-16 44 -55 2 c-46 1 -56 -2 -69 -21z"/>
<path d="M6585 5600 c-27 -4 -77 -9 -110 -9 -71 -1 -135 -17 -135 -34 0 -7 6
-19 13 -27 10 -13 77 -15 507 -14 443 0 498 2 527 17 18 9 41 17 53 17 11 0
20 4 20 8 0 5 -44 17 -97 26 -76 14 -170 18 -413 21 -173 2 -337 0 -365 -5z"/>
<path d="M6575 5341 c-139 -5 -167 -9 -212 -29 -71 -33 -90 -56 -95 -121 -4
-43 -2 -57 13 -72 28 -28 50 -23 91 20 34 36 41 39 100 43 91 6 132 -24 221
-161 29 -46 140 -93 212 -91 52 1 167 41 198 68 10 9 29 36 43 62 25 46 101
107 139 112 47 5 225 -15 235 -27 6 -8 9 -32 6 -55 -6 -53 9 -85 50 -110 43
-27 67 -17 148 63 72 71 81 91 69 162 -14 82 -34 90 -260 104 -372 24 -460 28
-608 30 -82 1 -159 3 -170 5 -11 1 -92 0 -180 -3z"/>
<path d="M3717 5344 c-1 -1 -74 -4 -162 -8 -480 -19 -672 -36 -712 -62 -15 -9
-24 -28 -28 -61 -4 -27 -9 -55 -11 -64 -5 -17 113 -147 151 -166 27 -14 110
-1 135 22 25 23 25 41 0 90 -11 21 -16 43 -12 47 14 14 183 30 249 23 33 -4
69 -12 78 -19 9 -7 33 -43 54 -80 34 -64 40 -70 96 -93 33 -13 84 -31 113 -39
50 -14 56 -14 125 11 83 30 142 81 189 163 38 66 61 82 120 82 59 0 86 -11
131 -50 35 -30 37 -30 71 -16 l35 14 -6 59 c-7 74 -26 95 -113 123 -61 20 -92
22 -285 24 -119 0 -217 0 -218 0z"/>
<path d="M5666 4503 c-3 -4 -6 -30 -6 -59 0 -43 6 -61 35 -104 19 -29 35 -57
35 -64 0 -16 -38 -118 -47 -127 -14 -12 -111 -29 -169 -29 -64 0 -109 -17
-143 -54 -21 -23 -32 -26 -86 -26 -50 0 -67 5 -95 25 -47 35 -150 65 -219 65
-70 0 -94 16 -115 77 -22 63 -21 71 14 123 23 35 30 56 30 96 l0 50 -47 2
c-58 2 -77 -13 -145 -114 -40 -60 -48 -78 -48 -118 0 -48 22 -116 37 -116 5 0
22 -20 37 -44 16 -25 36 -52 45 -60 9 -8 64 -21 131 -30 83 -12 122 -22 140
-36 55 -45 71 -51 136 -62 113 -17 187 -7 283 40 52 26 105 43 140 47 114 13
167 42 221 121 42 61 72 165 54 189 -8 10 -20 42 -29 71 -16 56 -70 114 -106
114 -11 0 -33 7 -48 15 -16 8 -31 11 -35 8z"/>
<path d="M5593 3165 c-41 -19 -79 -45 -89 -60 -23 -36 -58 -51 -131 -60 -94
-10 -158 2 -199 37 -32 29 -106 58 -146 58 -10 0 -28 -10 -39 -21 -18 -18 -20
-28 -15 -73 12 -90 39 -112 179 -147 163 -41 186 -41 369 6 60 15 74 24 125
76 77 79 84 94 68 140 -14 40 -37 79 -45 78 -3 0 -37 -16 -77 -34z"/>
</g>
</svg>
